# Blender 4.5.3 LTS
# www.blender.org
mtllib supply_box.mtl
o supply_box
v -2.748440 0.145543 2.748440
v 3.000000 -0.190525 -3.000000
v -2.748440 0.145543 -2.748440
v 3.000000 -0.190525 3.000000
v 2.748440 0.145543 2.748440
v -3.000000 -0.190525 -3.000000
v 2.748440 0.145543 -2.748440
v -3.000000 -0.190525 3.000000
v 3.000000 0.190525 3.000000
v -3.000000 0.190525 3.000000
v 3.000000 0.190525 -3.000000
v -3.000000 0.190525 -3.000000
v 2.748440 2.209307 -2.748440
v 2.748440 2.209307 2.748440
v -2.748440 2.209307 -2.748440
v -2.748440 2.209307 2.748440
v 3.000000 2.209307 3.000000
v -3.000000 2.209307 3.000000
v 3.000000 2.209307 -3.000000
v -3.000000 2.209307 -3.000000
vn -0.0000 1.0000 -0.0000
vn -0.0000 -0.0000 1.0000
vn -1.0000 -0.0000 -0.0000
vn -0.0000 -1.0000 -0.0000
vn 1.0000 -0.0000 -0.0000
vn -0.0000 -0.0000 -1.0000
vt 0.635482 0.510482
vt 0.864518 0.510482
vt 0.864518 0.739518
vt 0.635482 0.739518
vt 0.375000 0.750000
vt 0.625000 0.750000
vt 0.625000 1.000000
vt 0.375000 1.000000
vt 0.375000 0.000000
vt 0.625000 0.000000
vt 0.625000 0.250000
vt 0.375000 0.250000
vt 0.125000 0.500000
vt 0.375000 0.500000
vt 0.125000 0.750000
vt 0.625000 0.500000
vt 0.875000 0.750000
vt 0.875000 0.500000
s 0
usemtl Material
f 7/1/1 3/2/1 1/3/1 5/4/1
f 4/5/2 9/6/2 10/7/2 8/8/2
f 8/9/3 10/10/3 12/11/3 6/12/3
f 6/13/4 2/14/4 4/5/4 8/15/4
f 2/14/5 11/16/5 9/6/5 4/5/5
f 6/12/6 12/11/6 11/16/6 2/14/6
f 9/6/5 11/16/5 19/16/5 17/6/5
f 12/11/3 10/10/3 18/10/3 20/11/3
f 10/7/2 9/6/2 17/6/2 18/7/2
f 11/16/6 12/11/6 20/11/6 19/16/6
f 13/1/2 15/2/2 3/2/2 7/1/2
f 14/4/1 16/3/1 18/17/1 17/6/1
f 13/1/1 14/4/1 17/6/1 19/16/1
f 16/3/1 15/2/1 20/18/1 18/17/1
f 15/2/1 13/1/1 19/16/1 20/18/1
f 14/4/3 13/1/3 7/1/3 5/4/3
f 15/2/5 16/3/5 1/3/5 3/2/5
f 16/3/6 14/4/6 5/4/6 1/3/6
